<?xml version="1.0" encoding="utf-8"?>
<!-- Generator: Adobe Illustrator 16.0.0, SVG Export Plug-In . SVG Version: 6.00 Build 0)  -->
<!DOCTYPE svg PUBLIC "-//W3C//DTD SVG 1.1//EN" "http://www.w3.org/Graphics/SVG/1.1/DTD/svg11.dtd">
<svg version="1.1" id="Layer_1" xmlns="http://www.w3.org/2000/svg" xmlns:xlink="http://www.w3.org/1999/xlink" x="0px" y="0px"
	 width="283.955px" height="59.528px" viewBox="0 0 283.955 59.528" enable-background="new 0 0 283.955 59.528"
	 xml:space="preserve">
<g>
	<g>
		<path fill="#64B51D" d="M18.004,26.168h-0.615L4.469,4.02H4.264v26.66h-0.82V1.969h1.23l13.125,22.559h0.205l13.33-22.559h1.23
			V30.68h-1.23V4.02h-0.205L18.004,26.168z"/>
		<path fill="#64B51D" d="M48.767,2.789H38.103v-0.82h22.559l-0.205,0.82H49.997V30.68h-1.23V2.789z"/>
		<path fill="#64B51D" d="M67.43,15.094h19.277V1.969h1.23V30.68h-1.23V15.914H67.43V30.68h-1.23V1.969h1.23V15.094z"/>
		<path fill="#64B51D" d="M113.163,2.994l-11.074,10.869v0.205c0,0,0.82-0.205,1.641-0.205c6.563,0,10.459,3.896,10.459,8.818
			s-3.896,8.818-10.459,8.818s-9.844-5.127-9.844-5.127l0.615-0.41c0,0,3.076,4.717,9.229,4.717c5.742,0,9.229-3.486,9.229-7.998
			s-3.486-7.998-9.229-7.998c-1.641,0-3.076,0.615-3.076,0.615l-0.41-0.779l11.689-11.525V2.789H95.116v-0.82h18.047V2.994z"/>
		<path fill="#64B51D" d="M122.188,29.859h17.227l-0.205,0.82h-18.252V1.969h1.23V29.859z"/>
		<path fill="#64B51D" d="M160.742,2.994l-11.074,10.869v0.205c0,0,0.82-0.205,1.641-0.205c6.563,0,10.459,3.896,10.459,8.818
			s-3.896,8.818-10.459,8.818s-9.844-5.127-9.844-5.127l0.615-0.41c0,0,3.076,4.717,9.229,4.717c5.742,0,9.229-3.486,9.229-7.998
			s-3.486-7.998-9.229-7.998c-1.641,0-3.076,0.615-3.076,0.615l-0.41-0.779l11.689-11.525V2.789h-16.816v-0.82h18.047V2.994z"/>
		<path fill="#64B51D" d="M183.097,26.168h-0.615L169.562,4.02h-0.205v26.66h-0.82V1.969h1.23l13.125,22.559h0.205l13.331-22.559
			h1.23V30.68h-1.23V4.02h-0.205L183.097,26.168z"/>
		<path fill="#64B51D" d="M222.883,2.994l-11.074,10.869v0.205c0,0,0.82-0.205,1.641-0.205c6.563,0,10.459,3.896,10.459,8.818
			s-3.896,8.818-10.459,8.818s-9.844-5.127-9.844-5.127l0.615-0.41c0,0,3.076,4.717,9.229,4.717c5.742,0,9.229-3.486,9.229-7.998
			s-3.486-7.998-9.229-7.998c-1.641,0-3.076,0.615-3.076,0.615l-0.41-0.779l11.689-11.525V2.789h-16.816v-0.82h18.047V2.994z"/>
		<path fill="#64B51D" d="M231.498,30.68h-0.82V1.969h1.23l19.482,27.07h0.205V1.969h0.82V30.68h-1.23l-19.482-27.07h-0.205V30.68z"
			/>
		<path fill="#64B51D" d="M268.617,2.789h-10.664v-0.82h22.559l-0.205,0.82h-10.459V30.68h-1.23V2.789z"/>
	</g>
	<g>
		<path fill="#FFFFFF" d="M11.248,47.141H4.949v3.584h5.474v1.38H4.949v5.253H3.412V45.762h7.836V47.141z"/>
		<path fill="#FFFFFF" d="M44.403,57.357h-1.669l-1.089-3.109c-0.1-0.27-0.231-0.517-0.396-0.742s-0.354-0.421-0.571-0.585
			c-0.217-0.163-0.458-0.291-0.725-0.382s-0.549-0.136-0.848-0.136H36.26v4.954h-1.537V45.762h5.14c0.31,0,0.605,0.007,0.887,0.021
			s0.549,0.047,0.804,0.097s0.497,0.125,0.725,0.225c0.229,0.1,0.445,0.237,0.65,0.412c0.352,0.311,0.618,0.686,0.8,1.125
			S44,48.535,44,49.003c0,0.404-0.061,0.776-0.181,1.116s-0.293,0.641-0.519,0.904c-0.225,0.264-0.499,0.486-0.821,0.668
			s-0.685,0.311-1.089,0.387v0.026c0.809,0.252,1.429,0.951,1.862,2.1L44.403,57.357z M36.26,51.015h3.444
			c0.474,0,0.883-0.035,1.226-0.105c0.342-0.07,0.623-0.185,0.843-0.342c0.22-0.158,0.381-0.366,0.483-0.624s0.153-0.571,0.153-0.94
			c0-0.667-0.205-1.161-0.614-1.48c-0.41-0.318-1.031-0.479-1.862-0.479H36.26V51.015z"/>
		<path fill="#FFFFFF" d="M77.375,57.357h-1.74l-1.344-3.522h-4.858l-1.282,3.522h-1.616l4.445-11.596h1.669L77.375,57.357z
			 M73.843,52.605l-2.047-5.368l-1.941,5.368H73.843z"/>
		<path fill="#FFFFFF" d="M110.978,57.357h-1.467v-9.856l-3.312,9.856h-1.38l-3.303-9.856v9.856h-1.458V45.762h2.319l3.127,9.663
			l3.162-9.663h2.311V57.357z"/>
		<path fill="#FFFFFF" d="M143.642,57.357h-8.662V45.762h8.398v1.379h-6.861v3.522h6.413v1.38h-6.413v3.936h7.125V57.357z"/>
		<path fill="#FFFFFF" d="M181.058,45.762l-3.224,11.596h-1.468l-2.793-10.085l-2.776,10.085h-1.476l-3.207-11.596h1.616
			l2.311,9.452l2.609-9.452h1.862l2.601,9.452l2.328-9.452H181.058z"/>
		<path fill="#FFFFFF" d="M208.943,45.56c0.803,0,1.543,0.144,2.223,0.431s1.266,0.692,1.756,1.217
			c0.492,0.523,0.877,1.155,1.152,1.893c0.275,0.738,0.412,1.555,0.412,2.451c0,0.891-0.137,1.703-0.408,2.438
			c-0.273,0.735-0.654,1.368-1.143,1.897c-0.488,0.53-1.072,0.942-1.752,1.234c-0.68,0.293-1.426,0.439-2.24,0.439
			s-1.561-0.145-2.24-0.435s-1.266-0.698-1.758-1.226s-0.873-1.159-1.146-1.897c-0.271-0.738-0.408-1.555-0.408-2.451
			c0-0.901,0.139-1.722,0.418-2.46c0.277-0.737,0.662-1.369,1.154-1.893c0.492-0.524,1.078-0.929,1.758-1.213
			S208.141,45.56,208.943,45.56z M208.934,56.242c0.58,0,1.113-0.107,1.6-0.321c0.486-0.213,0.904-0.521,1.256-0.922
			s0.625-0.892,0.822-1.472c0.195-0.58,0.293-1.238,0.293-1.977s-0.1-1.396-0.299-1.977s-0.473-1.068-0.824-1.467
			s-0.768-0.701-1.248-0.909s-1.002-0.313-1.564-0.313c-0.58,0-1.111,0.105-1.598,0.316s-0.906,0.517-1.262,0.918
			c-0.354,0.401-0.631,0.891-0.83,1.467c-0.199,0.577-0.299,1.231-0.299,1.964c0,0.738,0.098,1.396,0.295,1.977
			c0.195,0.58,0.471,1.07,0.822,1.472c0.35,0.401,0.768,0.709,1.25,0.922C207.832,56.135,208.359,56.242,208.934,56.242z"/>
		<path fill="#FFFFFF" d="M247.623,57.357h-1.668l-1.09-3.109c-0.1-0.27-0.23-0.517-0.395-0.742s-0.355-0.421-0.572-0.585
			c-0.217-0.163-0.457-0.291-0.725-0.382c-0.266-0.091-0.549-0.136-0.848-0.136h-2.846v4.954h-1.537V45.762h5.139
			c0.311,0,0.605,0.007,0.887,0.021s0.549,0.047,0.805,0.097c0.254,0.05,0.496,0.125,0.725,0.225s0.445,0.237,0.65,0.412
			c0.352,0.311,0.617,0.686,0.799,1.125s0.273,0.894,0.273,1.361c0,0.404-0.061,0.776-0.182,1.116
			c-0.119,0.34-0.293,0.641-0.518,0.904s-0.5,0.486-0.822,0.668s-0.684,0.311-1.088,0.387v0.026c0.809,0.252,1.428,0.951,1.861,2.1
			L247.623,57.357z M239.48,51.015h3.443c0.475,0,0.883-0.035,1.227-0.105c0.342-0.07,0.623-0.185,0.842-0.342
			c0.221-0.158,0.381-0.366,0.484-0.624c0.102-0.258,0.152-0.571,0.152-0.94c0-0.667-0.205-1.161-0.613-1.48
			c-0.41-0.318-1.031-0.479-1.863-0.479h-3.672V51.015z"/>
		<path fill="#FFFFFF" d="M280.543,57.357h-2.012l-4.129-5.789l-1.811,1.757v4.032h-1.537V45.762h1.537v5.745l5.676-5.745h2.064
			l-4.859,4.753L280.543,57.357z"/>
	</g>
</g>
</svg>
