<?xml version="1.0" encoding="utf-8"?>
<!-- Generator: Adobe Illustrator 16.0.0, SVG Export Plug-In . SVG Version: 6.00 Build 0)  -->
<!DOCTYPE svg PUBLIC "-//W3C//DTD SVG 1.1//EN" "http://www.w3.org/Graphics/SVG/1.1/DTD/svg11.dtd">
<svg version="1.1" id="Layer_1" xmlns="http://www.w3.org/2000/svg" xmlns:xlink="http://www.w3.org/1999/xlink" x="0px" y="0px"
	 width="164.687px" height="31.854px" viewBox="0 0 164.687 31.854" enable-background="new 0 0 164.687 31.854"
	 xml:space="preserve">
<g>
	<polygon opacity="0.6" fill="#FFFFFF" points="18.168,27.383 1.795,2.18 1.795,27.383 	"/>
	<polygon fill="#FFFFFF" points="29.387,29.674 29.387,2.213 11.547,29.674 	"/>
	<g>
		<path fill="#FFFFFF" d="M46.803,23.672c-0.223,0-0.316-0.094-0.316-0.316v-4.443l0.158-3.189h-0.031l-3.207,7.664
			c-0.094,0.207-0.236,0.285-0.459,0.285h-1.031c-0.223,0-0.365-0.078-0.477-0.27l-3.063-7.68h-0.031l0.158,3.189v4.443
			c0,0.223-0.096,0.316-0.318,0.316h-1.047c-0.223,0-0.316-0.094-0.316-0.316V12.564c0-0.223,0.094-0.318,0.316-0.318h1.443
			c0.223,0,0.365,0.08,0.477,0.27l3.57,8.666l3.777-8.648c0.111-0.207,0.254-0.287,0.477-0.287h1.285
			c0.223,0,0.316,0.096,0.316,0.318v10.791c0,0.223-0.094,0.316-0.316,0.316H46.803z"/>
		<path fill="#FFFFFF" d="M56.055,23.672c-0.221,0-0.316-0.094-0.316-0.316v-9.68h-2.332c-0.223,0-0.318-0.096-0.318-0.318v-0.793
			c0-0.223,0.096-0.318,0.318-0.318h6.664c0.223,0,0.318,0.096,0.318,0.318v0.793c0,0.223-0.096,0.318-0.318,0.318h-2.332v9.68
			c0,0.223-0.096,0.316-0.318,0.316H56.055z"/>
		<path fill="#FFFFFF" d="M71.385,23.672c-0.221,0-0.316-0.094-0.316-0.316v-4.824H66.99v4.824c0,0.223-0.096,0.316-0.318,0.316
			h-1.363c-0.223,0-0.318-0.094-0.318-0.316V12.564c0-0.223,0.096-0.318,0.318-0.318h1.363c0.223,0,0.318,0.096,0.318,0.318v4.539
			h4.078v-4.539c0-0.223,0.096-0.318,0.316-0.318h1.365c0.223,0,0.318,0.096,0.318,0.318v10.791c0,0.223-0.096,0.316-0.318,0.316
			H71.385z"/>
		<path fill="#FFFFFF" d="M80.59,17.23c0-0.223,0.047-0.398,0.174-0.588l1.668-2.967h-3.699c-0.221,0-0.316-0.096-0.316-0.318
			v-0.793c0-0.223,0.096-0.318,0.316-0.318h5.73c0.221,0,0.316,0.096,0.316,0.318v0.443c0,0.176-0.016,0.396-0.158,0.604
			l-2.189,3.016c1.713,0.27,2.887,1.555,2.887,3.443c0,2.189-1.713,3.793-3.744,3.793c-1.334,0-2.951-0.477-3.332-0.777
			c-0.111-0.096-0.111-0.176-0.018-0.414l0.254-0.666c0.049-0.127,0.254-0.078,0.414-0.031c0.412,0.111,1.744,0.381,2.666,0.381
			c0.84,0,1.682-0.746,1.697-2.174c0.016-1.412-0.793-2.316-1.951-2.301h-0.396c-0.223,0-0.318-0.096-0.318-0.318V17.23z"/>
		<path fill="#FFFFFF" d="M96.635,23.355c0,0.223-0.096,0.316-0.316,0.316h-5.602c-0.223,0-0.318-0.094-0.318-0.316V12.564
			c0-0.223,0.096-0.318,0.318-0.318h1.363c0.223,0,0.318,0.096,0.318,0.318v9.68h3.92c0.221,0,0.316,0.096,0.316,0.318V23.355z"/>
		<path fill="#FFFFFF" d="M103.682,17.23c0-0.223,0.047-0.398,0.174-0.588l1.666-2.967h-3.697c-0.223,0-0.318-0.096-0.318-0.318
			v-0.793c0-0.223,0.096-0.318,0.318-0.318h5.729c0.223,0,0.318,0.096,0.318,0.318v0.443c0,0.176-0.018,0.396-0.16,0.604
			l-2.189,3.016c1.715,0.27,2.889,1.555,2.889,3.443c0,2.189-1.715,3.793-3.746,3.793c-1.332,0-2.951-0.477-3.332-0.777
			c-0.111-0.096-0.111-0.176-0.016-0.414l0.254-0.666c0.047-0.127,0.254-0.078,0.412-0.031c0.412,0.111,1.746,0.381,2.666,0.381
			c0.842,0,1.682-0.746,1.699-2.174c0.016-1.412-0.795-2.316-1.953-2.301h-0.396c-0.223,0-0.316-0.096-0.316-0.318V17.23z"/>
		<path fill="#FFFFFF" d="M123.471,23.672c-0.223,0-0.316-0.094-0.316-0.316v-4.443l0.158-3.189h-0.031l-3.207,7.664
			c-0.094,0.207-0.236,0.285-0.459,0.285h-1.031c-0.223,0-0.365-0.078-0.477-0.27l-3.063-7.68h-0.031l0.158,3.189v4.443
			c0,0.223-0.096,0.316-0.318,0.316h-1.047c-0.223,0-0.316-0.094-0.316-0.316V12.564c0-0.223,0.094-0.318,0.316-0.318h1.443
			c0.223,0,0.365,0.08,0.477,0.27l3.57,8.666l3.777-8.648c0.111-0.207,0.254-0.287,0.477-0.287h1.285
			c0.223,0,0.316,0.096,0.316,0.318v10.791c0,0.223-0.094,0.316-0.316,0.316H123.471z"/>
		<path fill="#FFFFFF" d="M132.676,17.23c0-0.223,0.047-0.398,0.174-0.588l1.668-2.967h-3.699c-0.221,0-0.316-0.096-0.316-0.318
			v-0.793c0-0.223,0.096-0.318,0.316-0.318h5.73c0.221,0,0.316,0.096,0.316,0.318v0.443c0,0.176-0.016,0.396-0.158,0.604
			l-2.189,3.016c1.713,0.27,2.887,1.555,2.887,3.443c0,2.189-1.713,3.793-3.744,3.793c-1.334,0-2.951-0.477-3.332-0.777
			c-0.111-0.096-0.111-0.176-0.018-0.414l0.254-0.666c0.049-0.127,0.254-0.078,0.414-0.031c0.412,0.111,1.744,0.381,2.666,0.381
			c0.84,0,1.682-0.746,1.697-2.174c0.016-1.412-0.793-2.316-1.951-2.301h-0.396c-0.223,0-0.318-0.096-0.318-0.318V17.23z"/>
		<path fill="#FFFFFF" d="M149.561,23.672c-0.221,0-0.396-0.063-0.523-0.254l-4.84-7.744h-0.031l0.158,3.238v4.443
			c0,0.223-0.096,0.316-0.316,0.316h-1.207c-0.223,0-0.316-0.094-0.316-0.316V12.564c0-0.223,0.094-0.318,0.316-0.318h1.111
			c0.223,0,0.396,0.064,0.523,0.254l4.84,7.744h0.031l-0.158-3.236v-4.443c0-0.223,0.096-0.318,0.318-0.318h1.205
			c0.223,0,0.318,0.096,0.318,0.318v10.791c0,0.223-0.096,0.316-0.318,0.316H149.561z"/>
		<path fill="#FFFFFF" d="M158.559,23.672c-0.221,0-0.316-0.094-0.316-0.316v-9.68h-2.332c-0.223,0-0.318-0.096-0.318-0.318v-0.793
			c0-0.223,0.096-0.318,0.318-0.318h6.664c0.223,0,0.318,0.096,0.318,0.318v0.793c0,0.223-0.096,0.318-0.318,0.318h-2.332v9.68
			c0,0.223-0.096,0.316-0.318,0.316H158.559z"/>
	</g>
</g>
</svg>
